<svg width="34" height="34" viewBox="0 0 34 34" fill="none" xmlns="http://www.w3.org/2000/svg">
<path d="M16.9997 0.333374C7.79967 0.333374 0.333008 7.80004 0.333008 17C0.333008 26.2 7.79967 33.6667 16.9997 33.6667C26.1997 33.6667 33.6663 26.2 33.6663 17C33.6663 7.80004 26.1997 0.333374 16.9997 0.333374ZM23.7163 17.8834L18.7163 22.8834C18.4663 23.1334 18.1497 23.25 17.833 23.25C17.5163 23.25 17.1997 23.1334 16.9497 22.8834C16.4663 22.4 16.4663 21.6 16.9497 21.1167L19.8163 18.25H11.1663C10.483 18.25 9.91634 17.6834 9.91634 17C9.91634 16.3167 10.483 15.75 11.1663 15.75H19.8163L16.9497 12.8834C16.4663 12.4 16.4663 11.6 16.9497 11.1167C17.433 10.6334 18.233 10.6334 18.7163 11.1167L23.7163 16.1167C24.1997 16.6 24.1997 17.4 23.7163 17.8834Z" fill="#18181B"/>
</svg>
