<svg width="75" height="16" viewBox="0 0 75 16" fill="none" xmlns="http://www.w3.org/2000/svg">
<path d="M7.84234 15.74C3.40234 15.74 0.622344 12.8 0.622344 8.12C0.622344 3.5 3.56234 0.459999 7.98234 0.459999C11.6823 0.459999 14.3423 2.58 14.8023 5.9H11.3823C10.9423 4.42 9.68234 3.58 7.90234 3.58C5.50234 3.58 4.04234 5.28 4.04234 8.1C4.04234 10.88 5.52234 12.62 7.90234 12.62C9.72234 12.62 11.0623 11.72 11.4623 10.26H14.8223C14.3023 13.56 11.5423 15.74 7.84234 15.74ZM16.0692 10.48C16.0692 7.32 18.3892 5.2 21.5892 5.2C24.7692 5.2 27.0892 7.32 27.0892 10.48C27.0892 13.64 24.7692 15.74 21.5892 15.74C18.3892 15.74 16.0692 13.64 16.0692 10.48ZM19.1692 10.46C19.1692 11.98 20.1492 12.98 21.5892 12.98C23.0092 12.98 23.9892 11.98 23.9892 10.46C23.9892 8.96 23.0092 7.96 21.5892 7.96C20.1492 7.96 19.1692 8.96 19.1692 10.46ZM31.9548 15.5H28.8748V5.5H31.7548L31.9548 6.54C32.4548 5.84 33.4348 5.18 34.8748 5.18C36.3748 5.18 37.3348 5.88 37.9148 6.94C38.4348 5.88 39.6148 5.18 41.0548 5.18C43.6348 5.18 44.9148 6.68 44.9148 8.96V15.5H41.8348V9.82C41.8348 8.56 41.1748 7.96 40.1948 7.96C39.3148 7.96 38.4348 8.44 38.4348 10.14V15.5H35.3548V9.82C35.3548 8.58 34.7148 7.98 33.7348 7.98C32.8548 7.98 31.9548 8.46 31.9548 10.14V15.5ZM46.177 5.5H47.557V4.7C47.557 1.72 49.117 0.42 51.657 0.42C52.077 0.42 52.557 0.459999 53.037 0.539999V3.18H52.177C50.917 3.18 50.637 3.84 50.637 4.7V5.5H53.037V8.06H50.637V15.5H47.557V8.06H46.177V5.5ZM58.7688 15.76C55.7488 15.76 53.5888 13.56 53.5888 10.48C53.5888 7.36 55.6888 5.18 58.7088 5.18C61.8488 5.18 63.8088 7.24 63.8088 10.5V11.28L56.5488 11.32C56.7288 12.64 57.4688 13.26 58.8288 13.26C59.9888 13.26 60.8088 12.84 61.0288 12.12H63.8488C63.4888 14.34 61.5088 15.76 58.7688 15.76ZM58.7288 7.68C57.5088 7.68 56.8288 8.22 56.5888 9.42H60.7488C60.7488 8.36 59.9688 7.68 58.7288 7.68ZM68.555 15.76C66.435 15.76 65.115 14.52 65.115 12.56C65.115 10.72 66.415 9.58 68.815 9.4L71.615 9.18V9.02C71.615 8.04 71.015 7.52 69.915 7.52C68.615 7.52 67.915 8.02 67.915 8.92H65.355C65.355 6.66 67.215 5.18 70.075 5.18C72.975 5.18 74.615 6.8 74.615 9.66V15.5H71.895L71.695 14.18C71.375 15.1 70.055 15.76 68.555 15.76ZM69.635 13.48C70.815 13.48 71.635 12.9 71.635 11.76V11.22L70.075 11.36C68.735 11.48 68.255 11.78 68.255 12.42C68.255 13.14 68.695 13.48 69.635 13.48Z" fill="#18181B"/>
</svg>
