<svg width="157" height="46" viewBox="0 0 157 46" fill="none" xmlns="http://www.w3.org/2000/svg">
<g clip-path="url(#clip0_1_5558)">
<path fill-rule="evenodd" clip-rule="evenodd" d="M26.0205 13.8337C26.0019 13.8337 26.0205 22.4564 26.0205 22.4564C26.0205 23.5407 25.0877 24.4873 23.8678 24.4873H22.7004V24.9299H32.5921V24.4873H31.423C30.2209 24.4873 29.272 23.5238 29.272 22.4564V13.699V3.24865C29.272 2.19893 30.2016 1.21694 31.423 1.21694H32.5921V0.778354H22.7004V1.21694H23.8678C25.1046 1.21694 26.0205 2.19893 26.0205 3.24865V12.6139H14.2986V3.24865C14.2986 2.19893 15.246 1.21694 16.4489 1.21694H17.6163V0.778354H7.72461V1.21694H8.89607C10.1167 1.21694 11.0479 2.19893 11.0479 3.24865V22.4572C11.0479 23.5238 10.1167 24.4881 8.89607 24.4881H7.72461V24.9307H17.6163V24.4881H16.4489C15.246 24.4881 14.2986 23.5246 14.2986 22.4572C14.2986 22.4572 14.3156 13.8345 14.2986 13.8345L26.0205 13.8337ZM49.5431 18.6098C49.6302 20.0288 48.7506 22.1806 47.5267 23.2852C46.3529 24.3429 44.6823 25.2661 42.4467 25.2661C39.9078 25.2661 37.7221 23.91 36.924 23.6036C36.4426 23.419 35.8114 23.4432 35.434 23.6746C34.9946 23.9455 34.7238 24.3849 34.6206 25.1992H34.2489V16.8288H34.6206C34.96 19.4048 36.1613 20.9156 36.9078 21.7783C38.1277 23.182 40.4311 23.9785 42.6506 23.6246C44.4131 23.3384 46.3432 21.426 46.1295 19.0565C46.0554 18.2019 45.8651 16.9611 44.0898 15.7969C42.9739 15.068 41.3905 14.0344 39.8885 13.0379C37.9922 11.7794 36.2725 10.4193 35.7872 9.86783C35.1567 9.14786 34.3674 8.10701 34.3674 6.44698C34.3674 5.02559 34.9076 3.39861 36.0613 2.31503C37.2126 1.23146 38.7718 0.417969 41.0067 0.417969C43.2424 0.417969 44.9363 1.60474 45.5128 1.87483C46.0892 2.14492 46.7253 2.08123 47.0865 1.87483C47.4437 1.67005 47.6807 1.36287 47.7831 0.555027H48.1524V8.47869H47.7831C47.4437 5.90519 46.3255 3.97426 45.5458 3.26155C44.7662 2.55126 43.2424 1.56927 40.9737 2.01108C38.7952 2.42952 37.7358 3.41554 37.5343 5.15862C37.3827 6.48568 38.1027 7.30562 38.5179 7.80145C39.3652 8.81972 44.7396 11.8633 47.172 13.9667C48.4273 15.0519 49.4101 16.3403 49.5431 18.6098ZM65.2107 12.5961C69.5143 14.0739 70.7414 17.1143 69.9424 20.2424C69.0048 23.9261 64.8535 24.6759 63.5063 24.8549C62.8992 24.9307 61.3488 24.9226 59.8153 24.9242C57.0774 24.9291 53.617 24.9194 50.8363 24.9194V24.4768H52.2593C53.1647 24.4768 54.1999 23.7149 54.1999 22.562V3.2809C54.1999 2.12799 53.1647 1.34836 52.269 1.34836H50.846V0.905736H59.4324C61.4988 0.905736 62.621 1.10649 63.345 1.24919C64.5649 1.48381 68.1228 2.53513 68.9677 5.8552C69.6232 8.42628 68.3429 11.6673 65.2107 12.5961ZM57.4168 11.9205C58.6028 12.2236 62.0938 12.3043 63.4482 11.4456C65.5702 10.096 66.3055 7.93609 65.9153 6.02209C65.6799 4.87482 65.0712 3.81382 64.0239 3.07934C61.9567 1.62328 58.9777 1.8571 57.4176 2.33197L57.4168 11.9205ZM57.4168 23.5625C59.0905 24.0825 62.2752 24.4776 64.4955 22.8893C67.1593 20.9826 67.7205 16.3249 63.9602 13.8974C62.4469 12.9186 58.6705 12.9879 57.4168 13.2806V23.5625ZM92.5823 1.19759L92.9322 9.38006L92.4412 9.39699C92.2033 7.32981 91.4269 5.87133 90.4425 4.92642C90.1571 4.65069 89.6218 4.09842 88.847 3.61226C87.5586 2.79877 85.639 2.07881 83.3606 2.48595C79.9405 3.09547 78.1773 5.35776 77.3001 7.53378C76.2117 10.2105 75.5264 14.7826 77.363 18.6461C78.8578 21.7791 81.7263 23.0828 83.9354 23.4182C85.822 23.7092 89.9991 23.6214 93.187 19.3209L93.6957 19.6595C91.2222 23.1505 87.9343 25.3862 84.1725 25.3532C79.3649 25.3072 76.3439 22.6611 74.9612 21.0849C73.5028 19.4257 72.3869 16.275 72.3724 13.5281C72.3619 11.0893 72.8989 8.37307 73.7745 6.7856C75.2829 4.06214 78.4337 1.34917 82.5842 0.946051C85.6898 0.638876 87.7304 1.25 89.4767 2.24731C90.3522 2.74798 90.84 2.80522 91.3157 2.60528C91.7881 2.4013 92.1695 1.99657 92.1695 1.19759H92.5823Z" fill="#70707B"/>
<path fill-rule="evenodd" clip-rule="evenodd" d="M100.895 12.8647L112.963 24.93V0.794556L100.895 12.8647ZM112.963 24.93H137.097L125.032 12.8647L112.963 24.93ZM125.032 12.8647L137.097 0.794556H112.963L125.032 12.8647ZM137.1 0.794556V24.93L149.165 12.8647L137.1 0.794556ZM25.9181 41.2844C25.9181 40.1541 26.5639 39.2341 27.6499 39.2341C28.914 39.2341 29.4389 40.1299 29.4099 41.2844H25.9181ZM108.623 42.0415C108.653 43.3185 108.367 44.652 106.824 44.652C106.054 44.652 105.463 44.2255 105.463 43.3717C105.463 42.3672 106.52 42.0802 107.318 42.0415H108.623ZM90.2232 41.9407C90.2232 40.4733 90.7287 39.2341 92.2832 39.2341C93.8376 39.2341 94.3447 40.4733 94.3447 41.9407C94.3447 43.4161 93.8376 44.652 92.2832 44.652C90.7287 44.652 90.2232 43.4161 90.2232 41.9407ZM66.0943 41.9302C66.0943 40.6362 66.4781 39.1946 68.047 39.1946C69.5304 39.1946 69.9997 40.6765 69.9997 41.9302C69.9997 43.2234 69.6272 44.6907 68.047 44.6907C66.5764 44.6907 66.0943 43.2226 66.0943 41.9302ZM49.348 41.9407C49.348 40.4733 49.8584 39.2341 51.4095 39.2341C52.9656 39.2341 53.4751 40.4733 53.4751 41.9407C53.4751 43.4161 52.9664 44.652 51.4095 44.652C49.8584 44.6528 49.348 43.4161 49.348 41.9407ZM11.0535 36.6486H7.72461V35.4658H15.7571V36.6486H12.429V45.3962H11.0535V36.6486ZM143.66 45.3962V35.4666H144.966V41.3086L147.55 38.4916H149.242L146.327 41.4223L149.418 45.397H147.73L144.995 41.6698H144.966V45.397H143.66V45.3962ZM136.798 39.5115H136.826C137.269 38.6424 138.227 38.2876 138.914 38.2876C139.396 38.2876 141.529 38.407 141.529 40.6225V45.3954H140.223V41.049C140.223 39.9074 139.739 39.2898 138.64 39.2898C138.64 39.2898 137.926 39.2454 137.377 39.7969C137.184 39.9904 136.826 40.2895 136.826 41.6391V45.3946H135.519V38.49H136.798V39.5115ZM132.127 42.0415C132.152 43.3185 131.866 44.652 130.324 44.652C129.555 44.652 128.964 44.2255 128.964 43.3717C128.964 42.3672 130.021 42.0802 130.817 42.0415H132.127ZM130.943 41.1304C129.307 41.1304 127.587 41.6956 127.587 43.637C127.587 44.9834 128.797 45.6026 129.993 45.6026C130.943 45.6026 131.711 45.2309 132.139 44.3634H132.164C132.18 44.6803 132.207 44.9842 132.237 45.297C132.248 45.4639 132.484 45.3962 132.605 45.3962H133.484C133.452 44.9112 133.434 44.4254 133.431 43.9393V40.6354C133.431 38.7109 132.03 38.2876 130.612 38.2876C129.251 38.2876 128.068 38.8214 127.998 40.3314H129.376C129.389 39.6179 130.008 39.2341 130.668 39.2341C132.057 39.2341 132.128 39.9348 132.128 41.1304H130.943ZM124.765 41.9407C124.765 43.2347 124.283 44.652 122.813 44.652C121.232 44.652 120.86 43.2347 120.86 41.9407C120.86 40.6934 121.326 39.2341 122.813 39.2341C124.381 39.2341 124.765 40.6515 124.765 41.9407ZM120.887 44.3626L120.86 44.2949H120.887C121.353 45.2583 122.265 45.6018 123.268 45.6018C125.316 45.6018 126.139 43.7168 126.139 41.9407C126.139 40.0718 125.177 38.2876 123.032 38.2876C122.152 38.2876 121.286 38.6029 120.886 39.4293H120.859V35.4658H119.556V44.2949C119.556 44.5674 119.513 44.9834 119.483 45.3954H120.833L120.887 44.3626ZM112.127 45.3962V35.4666H113.431V45.3962H112.127ZM107.443 41.1304C105.807 41.1304 104.087 41.6956 104.087 43.637C104.087 44.9834 105.3 45.6026 106.495 45.6026C107.443 45.6026 108.213 45.2309 108.639 44.3634H108.664C108.681 44.6803 108.705 44.9842 108.734 45.297C108.746 45.4639 108.984 45.3962 109.105 45.3962H109.986C109.952 44.9113 109.934 44.4254 109.932 43.9393V40.6354C109.932 38.7109 108.53 38.2876 107.112 38.2876C105.751 38.2876 104.569 38.8214 104.5 40.3314H105.878C105.889 39.6179 106.508 39.2341 107.168 39.2341C108.557 39.2341 108.625 39.9348 108.625 41.1304H107.443ZM101.588 40.7047C101.519 39.8388 101.106 39.2341 100.174 39.2341C98.9201 39.2341 98.4387 40.3193 98.4387 41.9407C98.4387 43.566 98.9209 44.652 100.174 44.652C101.041 44.652 101.575 44.0869 101.644 43.0976H102.95C102.838 44.652 101.685 45.601 100.158 45.601C97.9421 45.601 97.0633 44.0296 97.0633 41.9979C97.0633 39.9743 98.0808 38.286 100.268 38.286C101.725 38.286 102.825 39.2059 102.895 40.7031H101.588V40.7047ZM92.2832 38.2876C90.016 38.2876 88.8454 39.7977 88.8454 41.9407C88.8454 44.0869 90.0152 45.6018 92.2832 45.6018C94.5535 45.6018 95.7258 44.0869 95.7258 41.9407C95.725 39.7977 94.5535 38.2876 92.2832 38.2876ZM85.6551 45.3962V35.4666H86.9604V45.3962H85.6551ZM77.2808 38.2876C78.5869 38.2876 80.0574 38.8343 79.9615 40.404H78.5869C78.6417 39.5236 77.9685 39.2341 77.2114 39.2341C76.5084 39.2341 75.9456 39.5631 75.9456 40.3314C75.9456 41.1046 77.1268 41.1578 77.6226 41.3078C78.7933 41.6948 80.1397 41.8318 80.1397 43.3879C80.1397 45.0793 78.4917 45.6018 77.0752 45.6018C75.628 45.6018 74.4219 44.9391 74.4332 43.3467H75.8086C75.8368 44.1989 76.4141 44.652 77.2122 44.652C77.9806 44.652 78.7667 44.3465 78.7667 43.4524C78.7667 41.9141 74.571 43.0678 74.571 40.3758C74.5702 38.9318 76.0279 38.2876 77.2808 38.2876ZM73.6181 35.4658H75.2136L73.6745 38.8343H72.7393L73.6181 35.4658ZM69.9868 39.4293H69.9586C69.5587 38.6029 68.6952 38.2876 67.8132 38.2876C65.6678 38.2876 64.7188 40.0718 64.7188 41.9407C64.7188 43.7168 65.5291 45.6018 67.5802 45.6018C68.5831 45.6018 69.4918 45.2583 69.9586 44.2949H69.9868V44.3626L70.0263 45.3954H71.3606C71.334 44.9955 71.2921 44.5827 71.2921 44.1715V35.465H69.9868V39.4293ZM61.5278 45.3962V35.4666H62.8347V45.3962H61.5278ZM57.8046 45.3962H56.5001V38.4916H57.8046V39.8267H57.8336C58.0255 38.877 58.9051 38.3973 59.8557 38.3973C60.0193 38.3973 60.1572 38.4086 60.3079 38.4086V39.6445C60.1282 39.58 59.9234 39.58 59.7452 39.58C58.0965 39.6316 57.8054 40.5136 57.8054 41.9721L57.8046 45.3962ZM51.4095 38.2876C49.1432 38.2876 47.9726 39.7977 47.9726 41.9407C47.9726 44.0869 49.1432 45.6018 51.4095 45.6018C53.6815 45.6018 54.8506 44.0869 54.8506 41.9407C54.8506 39.7977 53.6815 38.2876 51.4095 38.2876ZM47.1631 38.4908L44.7283 45.3954H43.2424L41.6356 39.7122H41.6074L39.8199 45.3954H38.2929L36.0113 38.4908H37.4287L39.0911 44.0498H39.1209L40.8374 38.4908H42.5273L44.0817 43.9393H44.1115L45.8304 38.4908H47.1631ZM30.7853 42.1898V41.544C30.7853 39.6308 29.8081 38.3239 27.7482 38.2876C25.5601 38.2876 24.5418 39.9759 24.5418 41.9995C24.5418 44.0312 25.4214 45.6026 27.6345 45.6026C29.2865 45.6026 30.4983 44.8181 30.7014 43.2484H29.326C29.1744 44.2546 28.6673 44.6528 27.649 44.6528C26.3172 44.6528 25.8205 43.4024 25.9173 42.1898H30.7853ZM16.8713 45.3962V35.4666H18.1782V39.4139H18.2081C18.7031 38.6424 19.4432 38.2884 20.4478 38.2884C22.2473 38.2884 22.8117 39.4817 22.8117 40.72V45.397H21.5072V41.3094C21.5072 40.1017 21.1911 39.3156 19.9665 39.2922C19.444 39.2761 18.6458 39.6768 18.3991 40.2508C18.0968 40.9692 18.179 41.4634 18.179 41.8471V45.3962H16.8713Z" fill="#70707B"/>
</g>
<defs>
<clipPath id="clip0_1_5558">
<rect width="155.406" height="45.13" fill="white" transform="translate(0.868164 0.444458)"/>
</clipPath>
</defs>
</svg>
