<svg width="195" height="35" viewBox="0 0 195 35" fill="none" xmlns="http://www.w3.org/2000/svg">
<g clip-path="url(#clip0_1_5545)">
<path d="M52.7878 18.6044C49.4189 18.6044 47.7435 22.0034 47.7435 26.5914C47.7435 31.3666 49.353 34.7041 52.7878 34.7041C56.2255 34.7041 57.8302 31.3666 57.8302 26.5914C57.8302 22.0034 56.1567 18.6044 52.7878 18.6044ZM52.7878 31.5813C51.8923 31.5813 51.4943 30.4788 51.4943 26.5901C51.4943 23.0391 51.7597 21.7245 52.7878 21.7245C53.814 21.7245 54.0804 23.0391 54.0804 26.5901C54.0804 30.4827 53.6794 31.5813 52.7878 31.5813ZM60.1596 17.2937V19.0103H58.6856V22.5023H60.1596V34.3715H63.7748V22.5023H65.7423V19.0103H63.7748V17.4522C63.7748 16.5186 64.1185 16.008 65.0702 16.008C65.2707 16.008 65.538 16.0682 65.7413 16.1323V12.3379C65.1581 12.2462 64.6216 12.1519 63.9103 12.1519C61.5228 12.1532 60.1596 13.5294 60.1596 17.2937ZM21.6178 23.3259C21.6178 19.9294 19.3658 18.6476 17.1978 18.6476C15.1472 18.6476 13.1367 19.8679 12.7367 22.8977L15.8813 23.7868C15.9205 22.8886 16.1983 21.7691 17.066 21.7691C17.6904 21.7691 18.0016 22.3779 18.0016 23.2944V24.6156C15.6131 24.9953 12.3215 26.1763 12.2422 30.1751C12.1868 32.9993 13.5606 34.67 15.3629 34.67C16.4293 34.67 17.4966 33.8622 18.1133 32.9705C18.1352 33.2258 18.1591 33.9512 18.2269 34.3754H21.9538C21.8173 34.1659 21.6168 33.6409 21.6168 31.8968L21.6178 23.3259ZM18.0025 30.4592C17.6951 31.0143 17.2541 31.4137 16.8426 31.4137C16.1944 31.4137 15.7935 30.8559 15.7935 29.7849C15.7935 27.8248 16.7386 27.1662 18.0016 26.9999L18.0025 30.4592ZM30.4835 18.645C29.0735 18.645 28.0778 19.5406 27.3332 20.5815H27.2864L27.2683 19.0103H23.7304V34.3728H27.3456V23.3861C27.6759 22.8061 28.1151 22.4316 28.5217 22.4316C29.126 22.4316 29.3551 22.9174 29.3551 23.7933V34.3702H32.9704V22.2195C32.9713 20.1127 32.0663 18.645 30.4835 18.645ZM45.1316 19.009H41.5364L38.8768 23.6519H38.8328V12.5827H35.2157V34.3715H38.8328V28.8696L39.5927 27.6703H39.6366L41.3989 34.3715H45.1488L42.1073 23.7383L45.1316 19.009ZM8.38928 23.0391V22.8689C9.54058 22.2522 10.9821 20.753 10.9821 17.9052C10.9821 14.8963 9.13199 12.5814 6.3177 12.5814H0.0371094V34.3728H6.15732C9.174 34.3728 11.3592 32.2726 11.3592 28.5436C11.3592 25.7508 10.1105 23.8169 8.38928 23.0391ZM3.93969 16.4387H5.34588C6.25852 16.4387 7.28094 16.7752 7.28094 18.8545C7.28094 20.1429 6.7072 21.2126 5.25519 21.2126H3.93969V16.4387ZM5.4127 30.3348H3.93969V24.8853H5.4127C6.7072 24.8853 7.43845 25.9577 7.43845 27.5799C7.43845 29.8124 6.28143 30.3348 5.4127 30.3348ZM142.627 31.8968V23.3259C142.627 19.9294 140.377 18.6476 138.21 18.6476C136.158 18.6476 134.147 19.8679 133.746 22.8977L136.894 23.7868C136.931 22.8886 137.207 21.7691 138.077 21.7691C138.698 21.7691 139.014 22.3779 139.014 23.2944V24.6156C136.623 24.9953 133.328 26.1763 133.251 30.1751C133.195 32.9993 134.568 34.67 136.373 34.67C137.44 34.67 138.504 33.8622 139.126 32.9705C139.145 33.2258 139.17 33.9512 139.235 34.3754H142.96C142.83 34.1633 142.627 33.6409 142.627 31.8968ZM139.016 30.4592C138.704 31.0143 138.265 31.4137 137.854 31.4137C137.205 31.4137 136.804 30.8559 136.804 29.7849C136.804 27.8248 137.749 27.1662 139.014 26.9999L139.016 30.4592ZM103.213 18.6044C99.887 18.6044 98.2336 22.2771 98.2336 26.6241C98.2336 30.8782 99.7963 34.7054 103.255 34.7054C104.23 34.746 105.19 34.3619 105.996 33.6083C106.803 32.8546 107.414 31.7701 107.744 30.5102L105.307 29.2847C105.127 30.522 104.391 31.394 103.518 31.394C102.064 31.394 101.799 29.1236 101.848 27.7554H107.898V26.7145C107.898 22.7066 106.695 18.6044 103.213 18.6044ZM104.55 24.8146H101.849C101.793 23.3691 102.162 21.7259 103.189 21.7259C104.438 21.7259 104.586 23.3913 104.55 24.8146ZM117.648 19.0103H121.261V34.3728H117.648V19.0103ZM117.648 12.5814H121.261V16.9886H117.648V12.5814ZM128.057 21.7259C128.639 21.7259 128.927 22.1553 129.105 22.7642C129.263 23.3468 129.284 24.0814 129.284 24.6954H132.367C132.367 23.1648 131.785 18.607 127.95 18.607C124.535 18.607 122.84 22.8008 122.84 26.992C122.84 30.7852 124.533 34.7067 127.793 34.7067C130.427 34.7067 131.989 32.7492 132.258 29.015L129.446 28.4624C129.446 29.6264 129.334 31.3954 128.06 31.3954C127.126 31.3954 126.724 30.268 126.724 26.8061C126.717 23.7462 126.854 21.7259 128.057 21.7259ZM72.0258 12.5827L68.2998 34.3728H71.7804L72.4735 29.9682H76.1555L76.7808 34.3728H80.6863L77.2916 12.5827H72.0258ZM73.032 26.1108L74.3742 17.2335H74.4544L75.5971 26.1108H73.032ZM112.982 21.0895H112.922L112.885 19.009H109.387V34.3715H113.006V24.4231C113.43 23.7305 114.065 23.2342 114.989 23.2342C115.611 23.2342 116.051 23.4411 116.462 23.6584V18.6437C115.068 18.645 113.719 19.4672 112.982 21.0895ZM94.141 18.645C92.6269 18.645 91.5472 19.7631 90.9153 20.6993H90.8685C90.5267 19.5144 89.7936 18.645 88.6948 18.645C87.3478 18.645 86.2146 19.5995 85.4585 20.5763H85.4127L85.3936 19.0116H81.8653V34.3741H85.4127V23.4175C85.7172 22.8519 86.2604 22.4709 86.6394 22.4709C87.3105 22.4709 87.4881 23.0208 87.4881 23.8483V34.3741H91.0375V23.4175C91.2723 22.9933 91.7888 22.4709 92.2737 22.4709C92.9315 22.4709 93.1148 23.0208 93.1148 23.8483V34.3741H96.6613V22.1265C96.6613 20.0054 95.6436 18.645 94.141 18.645ZM164.852 9.13128C166.286 9.90854 167.704 10.7416 169.103 11.6295C164.657 14.1043 160.356 17.0414 156.236 20.4152C154.846 19.4159 153.435 18.4724 152.005 17.5857C156.116 14.3014 160.412 11.4742 164.852 9.13128ZM159.547 6.56104C154.936 8.56477 150.48 11.187 146.244 14.3896C147.591 15.0574 148.925 15.7683 150.24 16.5291C154.343 13.2178 158.665 10.4438 163.148 8.24354C161.958 7.64418 160.757 7.08319 159.547 6.56104Z" fill="#70707B"/>
<path d="M174.514 8.88377C170.871 6.46608 167.096 4.43883 163.225 2.8202C161.859 3.35965 160.506 3.94754 159.165 4.58781C163.152 6.20717 167.038 8.25838 170.787 10.7221C172.02 10.0722 173.262 9.45933 174.514 8.88377ZM180.445 6.45886C176.715 4.22855 172.873 2.36715 168.949 0.888916C167.698 1.24394 166.453 1.63947 165.216 2.07518C169.108 3.63566 172.907 5.60867 176.576 7.97639C177.858 7.43222 179.148 6.92626 180.445 6.45886ZM189.968 10.8465C180.709 15.1293 171.955 21.2443 163.984 28.9979C165.96 30.6644 167.89 32.4306 169.771 34.2929C177.281 26.1191 185.57 19.391 194.409 14.2953C192.953 13.0868 191.472 11.9367 189.968 10.8465ZM183.551 6.66443C173.931 10.1595 164.795 15.7932 156.504 23.3415C158.355 24.5899 160.174 25.9258 161.958 27.3468C170.081 19.6296 179.037 13.7111 188.5 9.80817C186.875 8.6892 185.224 7.64076 183.551 6.66443ZM172.815 32.922C172.815 32.156 173.285 31.5328 173.862 31.5328C174.44 31.5328 174.909 32.156 174.909 32.922C174.909 33.7024 174.44 34.3256 173.862 34.3256C173.285 34.3256 172.815 33.7024 172.815 32.922ZM173.013 32.922C173.013 33.5597 173.391 34.0507 173.862 34.0507C174.329 34.0507 174.708 33.5597 174.708 32.922C174.708 32.3053 174.33 31.8091 173.862 31.8091C173.392 31.8091 173.013 32.3053 173.013 32.922Z" fill="#70707B"/>
<path d="M174.382 33.7063H174.187L173.851 32.9875H173.644V33.7063H173.472V32.1469H173.981C174.081 32.1378 174.18 32.1644 174.27 32.2241C174.31 32.2608 174.344 32.311 174.366 32.3701C174.389 32.4292 174.4 32.4953 174.399 32.5619C174.399 32.8657 174.236 32.9809 174.029 32.9888L174.382 33.7063ZM173.838 32.7963C174.001 32.7963 174.225 32.8343 174.225 32.5554C174.225 32.3524 174.095 32.3249 173.948 32.3249H173.646V32.7937L173.838 32.7963Z" fill="#70707B"/>
</g>
<defs>
<clipPath id="clip0_1_5545">
<rect width="194.444" height="33.8164" fill="white" transform="translate(0 0.888916)"/>
</clipPath>
</defs>
</svg>
