<svg width="194" height="29" viewBox="0 0 194 29" fill="none" xmlns="http://www.w3.org/2000/svg">
<g clip-path="url(#clip0_1_5563)">
<path d="M1.29791 28.3957C0.647208 27.8828 0.364882 26.6166 0.659605 25.5908C0.720981 25.3664 1.69058 23.988 2.80773 22.5454L4.83311 19.9008H3.22509C1.40838 19.9008 1.05253 19.7565 0.733256 18.8749C0.365005 17.8493 0.561528 16.5829 1.21198 15.9259C1.53113 15.5892 1.67843 15.5733 3.92476 15.5733C6.28157 15.5733 6.28157 15.5733 6.66209 15.99C6.87077 16.2144 7.17764 16.7754 7.36177 17.2242C7.77912 18.3462 8.56472 19.372 9.3135 19.8208C10.0009 20.2215 10.3937 20.7184 10.59 21.3915C10.6638 21.6478 10.7251 22.9621 10.7251 24.3566C10.7251 26.4403 10.6883 26.9692 10.5042 27.434C10.0745 28.572 9.0556 29.0208 8.086 28.4919C7.42314 28.1232 7.28812 27.5943 7.28812 25.2382V23.1865L5.29956 25.7831C4.19481 27.1936 3.17599 28.4438 3.02869 28.54C2.59906 28.8285 1.75208 28.7483 1.29791 28.3957ZM12.235 28.4759C12.014 28.3476 11.7194 28.011 11.5844 27.7225C11.3634 27.2417 11.3389 26.9211 11.3389 24.3085C11.3389 20.8785 11.4003 20.6701 12.5418 19.9168C13.4502 19.3239 14.2112 18.3301 14.6654 17.1439C15.2423 15.6374 15.4019 15.5731 18.0656 15.5731C20.5451 15.5731 20.8029 15.6533 21.208 16.5669C21.478 17.1439 21.4904 18.2659 21.2325 18.907C20.8767 19.8047 20.6556 19.9008 18.8389 19.9008H17.1818L19.2809 22.6736C21.5149 25.6389 21.6499 25.9113 21.4044 27.0974C21.2203 27.995 20.6802 28.5881 19.9682 28.6682C19.6491 28.7163 19.2563 28.6842 19.0967 28.6041C18.9494 28.5239 17.906 27.2898 16.8013 25.8472L14.7759 23.2186V25.0939C14.7759 27.2577 14.6286 27.8988 14.0148 28.3957C13.5484 28.7644 12.7996 28.7964 12.235 28.4759ZM52.9267 27.418C51.515 27.1455 50.6681 26.1357 50.3857 24.3726C50.2998 23.8918 50.2507 21.3592 50.2507 18.1376V12.688H47.7957V9.00156H50.128V6.19661C50.128 4.6579 50.1648 3.39167 50.2016 3.39167C50.2384 3.39167 50.9995 3.13522 51.8956 2.83069C52.7916 2.52615 53.5895 2.2697 53.6754 2.2697C53.7736 2.2697 53.8106 3.23139 53.8106 5.63563V9.00156H57.2476V12.688H53.7859L53.8349 17.3843C53.884 22.4332 53.9332 22.8339 54.5714 23.2827C54.8538 23.475 56.0076 23.5071 56.7809 23.3468L57.2475 23.2346V27.0814L56.916 27.1777C55.4553 27.5783 54.1542 27.6584 52.9267 27.418ZM84.8049 27.418C82.043 26.8891 80.2754 24.8375 79.723 21.5036C79.453 19.9008 79.4162 17.5446 79.6371 15.8937C80.0545 12.8002 81.2697 10.5884 83.2214 9.3702C84.1052 8.82524 84.2648 8.77716 85.5782 8.71305C86.4498 8.66496 87.2476 8.71305 87.6773 8.84127C89.7272 9.41829 91.2125 11.4859 91.679 14.4031C91.8632 15.5089 91.9245 17.9131 91.7894 18.5864L91.7157 18.9391H83.1232L83.1969 19.7084C83.4178 21.6799 83.9825 22.7538 85.1609 23.443C86.278 24.0841 88.8434 23.8437 90.476 22.9303L90.9915 22.6416L91.0529 23.0743C91.0897 23.3148 91.1756 24.1482 91.2616 24.9176C91.4457 26.5845 91.5193 26.4723 90.0586 26.9373C88.2787 27.5302 86.3147 27.7065 84.8049 27.418ZM88.2296 14.8999C88.0455 13.217 87.1494 12.2072 85.8605 12.2072C84.7926 12.2072 84.007 12.9124 83.5283 14.2909C83.0618 15.6372 82.9391 15.5731 85.7869 15.5731H88.3033L88.2296 14.8999ZM111.27 27.418C110.693 27.3379 110.226 27.2577 110.214 27.2257C110.202 27.2095 110.226 26.312 110.251 25.2221C110.3 23.475 110.325 23.2507 110.509 23.3468C111.061 23.6353 113.111 23.9399 113.725 23.8437C114.903 23.6515 115.652 22.7858 115.505 21.7762C115.382 20.9267 114.94 20.4778 113.504 19.7406C112.78 19.372 111.933 18.8751 111.65 18.6507C109.6 17.1118 109.33 13.1368 111.11 10.7166C111.638 9.99531 112.988 9.11375 113.983 8.84127C114.609 8.64893 118.316 8.68099 118.414 8.8573C118.426 8.88936 118.426 9.77091 118.402 10.8288L118.353 12.7201L117.972 12.6239C115.885 12.0629 114.559 12.2072 114.019 13.0246C113.43 13.9543 113.713 14.9961 114.719 15.6212C115.075 15.8456 115.91 16.3265 116.573 16.6951C117.886 17.4324 118.635 18.2338 119.052 19.3398C119.249 19.8527 119.298 20.3175 119.298 21.5837C119.298 23.0583 119.273 23.2507 118.942 24.036C118.279 25.6068 117.076 26.7128 115.529 27.1936C114.523 27.5142 112.559 27.6103 111.27 27.418ZM144.768 27.3699C143.332 26.9532 142.51 26.0075 142.129 24.3407C141.479 21.4557 142.608 18.6026 144.928 17.2721C145.861 16.7273 147.481 16.2465 148.795 16.1183L149.924 16.0061V15.1083C149.924 13.9863 149.629 13.2011 149.065 12.7682C148.696 12.4957 148.426 12.4476 147.223 12.4476C145.713 12.4637 144.867 12.688 143.762 13.4093C143.43 13.6337 143.173 13.778 143.16 13.7619C143.087 13.3773 142.854 9.85105 142.915 9.77091C143.05 9.5946 144.682 9.01758 145.628 8.82524C146.168 8.71305 147.309 8.68099 148.39 8.71305C150.059 8.77716 150.305 8.82524 151.09 9.24198C152.465 9.97928 153.238 11.1974 153.484 13.0407C153.545 13.5055 153.619 16.9035 153.631 20.59L153.668 27.2737H150.292V24.6772L149.727 25.4948C149.065 26.4565 147.972 27.2096 146.917 27.4342C145.996 27.6264 145.628 27.6264 144.768 27.3699ZM148.034 23.6033C149.089 22.9783 149.924 21.2792 149.924 19.7246C149.924 19.0995 149.924 19.0835 149.531 19.1636C149.31 19.2117 148.807 19.2918 148.402 19.3399C146.769 19.5804 145.763 20.3176 145.493 21.5037C145.37 22.0166 145.382 22.209 145.579 22.7379C145.996 23.8277 147.027 24.1963 148.034 23.6033ZM31.4822 27.2737C28.2907 26.4082 26.2039 23.7956 25.4552 19.7244C24.9764 17.1437 25.0131 13.5215 25.5288 10.8448C25.627 10.3159 25.9584 9.20992 26.2653 8.39248C27.235 5.77988 28.9904 3.85649 31.2858 2.91083C32.5009 2.41395 35.4348 2.28573 37.2392 2.65438C37.9387 2.79863 38.5281 2.94288 38.5525 2.97494C38.5894 3.02302 38.2333 7.28653 38.1842 7.35065C38.172 7.36667 37.6319 7.22242 36.9937 7.04611C35.2752 6.58129 33.1516 6.67746 32.1819 7.27051C30.7211 8.15206 29.8128 9.78694 29.3832 12.3194C28.6712 16.5028 29.6287 20.6861 31.6416 22.2248C32.9305 23.2026 35.2014 23.3468 37.2392 22.5775C37.816 22.3531 38.2948 22.1768 38.2948 22.1928C38.3071 22.209 38.4053 23.1545 38.5158 24.2927C38.6876 25.9756 38.6999 26.3923 38.5649 26.4884C38.479 26.5685 37.9143 26.777 37.3006 26.9854C36.4168 27.2579 35.7662 27.338 34.1091 27.3699C32.9675 27.402 31.7768 27.3539 31.4822 27.2737ZM41.7809 18.1376V9.00156H45.4634V27.2737H41.7809V18.1376ZM60.439 18.1376V9.00156H64.1215V27.2737H60.439V18.1376ZM67.1902 25.5587C67.1902 23.6515 67.1289 23.8919 68.258 21.744C68.5895 21.1349 69.4979 19.4039 70.2711 17.8972C71.0568 16.4066 71.9283 14.7397 72.2106 14.2107L72.7262 13.249L70.0257 13.201L67.313 13.1689V9.00156H77.133V12.5278L76.2368 14.2428C74.9111 16.7752 73.254 19.9649 72.5053 21.4074C72.1494 22.0966 71.8548 22.6897 71.8548 22.7216C71.8548 22.7536 73.0699 22.7857 74.5553 22.7857H77.2558V27.2736H67.1902V25.5587ZM94.8091 18.1376V9.00156H98.2829L98.197 10.38L98.1233 11.7424L98.786 10.8127C99.2281 10.1876 99.7435 9.67474 100.296 9.32212C101.118 8.76113 101.143 8.76113 102.726 8.76113C104.285 8.76113 104.334 8.77716 104.997 9.25801C105.795 9.85105 106.384 10.7807 106.679 11.9347C106.851 12.656 106.888 13.7299 106.937 20.029L106.986 27.2737H103.279V20.8624C103.279 13.8902 103.266 13.7139 102.604 13.0407C102.198 12.6239 101.278 12.5598 100.664 12.9124C100.186 13.1849 99.3998 14.1626 99.1421 14.8198C98.4793 16.5028 98.4546 16.7913 98.3932 22.1928L98.3443 27.2737H94.8091V18.1376ZM126.97 14.9641V2.63835L127.804 2.54218C129.425 2.33381 134.629 2.41395 135.599 2.65438C137.317 3.08714 138.741 4.32131 139.294 5.86002C139.834 7.35065 139.834 9.53049 139.294 11.0051C138.987 11.8706 138.054 13.1368 137.354 13.6658C137.011 13.9222 136.826 14.1306 136.949 14.1306C137.379 14.1306 138.336 14.8519 138.901 15.6052C140.214 17.3683 140.448 20.6541 139.416 23.1064C138.987 24.1322 137.882 25.5106 137.047 26.0556C135.587 27.0333 134.875 27.1614 130.75 27.2415L126.969 27.3056L126.97 14.9641ZM134.605 22.7538C136.139 21.8241 136.593 19.4199 135.55 17.769C134.985 16.8713 134.101 16.5028 132.223 16.4066L130.652 16.3265V19.7084C130.652 22.2569 130.689 23.1064 130.812 23.1707C130.885 23.2188 131.622 23.2346 132.432 23.2188C133.733 23.1865 133.991 23.1224 134.605 22.7538ZM133.979 12.3835C134.691 12.095 135.501 11.0532 135.685 10.2037C135.869 9.33815 135.771 8.3444 135.427 7.62313C134.973 6.64541 133.389 6.1325 131.56 6.3569L130.652 6.46909V12.7201L132.101 12.64C132.886 12.6079 133.733 12.4797 133.979 12.3835ZM157.166 18.1376V9.00156H160.64L160.566 10.4601L160.48 11.9347L160.836 11.2936C161.303 10.4601 161.966 9.75488 162.813 9.20992C163.439 8.79319 163.598 8.77716 165.084 8.76113C166.421 8.76113 166.753 8.80922 167.17 9.0817C167.931 9.57857 168.643 10.5723 168.962 11.6462C169.257 12.6079 169.257 12.64 169.294 19.9488L169.331 27.2737H165.636V20.8304C165.636 14.7877 165.611 14.3229 165.39 13.6818C165.243 13.2651 165.034 12.9445 164.838 12.8483C164.323 12.5919 163.451 12.656 162.948 13.0086C162.297 13.4414 161.524 14.6275 161.192 15.7174C160.922 16.5827 160.91 16.8394 160.873 21.9522L160.836 27.2736H157.166V18.1376ZM172.878 13.8902V0.506592H176.438L176.462 8.42454L176.499 16.3585L177.015 15.3648C177.469 14.5153 178.451 12.672 180.022 9.77091L180.427 9.01758L182.674 9.00156H184.932L184.515 9.7068C184.294 10.1075 183.631 11.2295 183.042 12.2393C180.685 16.2463 180.12 17.2401 180.12 17.3521C180.12 17.4162 180.366 17.9131 180.66 18.4741C180.967 19.0351 181.569 20.1891 182.011 21.0226C182.453 21.856 183.128 23.1223 183.508 23.8275C183.889 24.5328 184.38 25.4784 184.613 25.9432C184.834 26.392 185.079 26.8086 185.153 26.8729C185.558 27.1934 185.104 27.2736 182.98 27.2415L180.697 27.1934L178.598 22.8498L176.499 18.4901L176.462 22.8817L176.438 27.2737H172.878V13.8902ZM189.069 14.3229C188.652 14.0504 188.271 13.6177 188.038 13.1849C187.719 12.5919 187.67 12.3354 187.633 11.2615C187.571 9.75488 187.817 9.00156 188.627 8.13603C189.548 7.15831 190.812 7.01405 191.843 7.79944C192.838 8.55276 193.255 9.51446 193.255 11.0852C193.255 13.9383 191.021 15.6533 189.069 14.3229ZM191.119 14.0504C191.463 13.9222 191.868 13.6337 192.027 13.4093L192.31 13.0086H191.868C191.487 13.0086 191.352 12.8964 190.91 12.2072C190.628 11.7744 190.296 11.4058 190.161 11.4058C189.977 11.4058 189.94 11.534 189.94 12.2072C189.94 12.9605 189.916 13.0086 189.633 13.0086H189.327V9.00156H190.247C191.07 9.00156 191.217 9.04964 191.475 9.40226C191.867 9.89914 191.867 10.3479 191.462 10.8608L191.155 11.2776L191.683 12.0469C191.978 12.4637 192.248 12.8163 192.285 12.8323C192.518 12.8804 192.8 11.9027 192.8 11.0371C192.8 10.2678 192.739 9.99531 192.444 9.43432C191.757 8.16809 190.849 7.67121 189.842 8.02383C188.516 8.48865 187.706 10.2518 188.087 11.8706C188.295 12.8002 189.007 13.7619 189.67 14.0344C190.407 14.339 190.395 14.339 191.119 14.0504ZM190.898 10.5723C191.278 10.0754 190.996 9.64268 190.296 9.64268C189.965 9.64268 189.941 9.69077 189.941 10.2037C189.941 10.7326 189.965 10.7647 190.346 10.7647C190.567 10.7647 190.812 10.6845 190.898 10.5723ZM1.08923 14.0825C0.37728 13.1529 0.365005 11.6622 1.04013 10.7647L1.42078 10.2838H4.80856L2.79546 7.65518C1.69071 6.21264 0.733256 4.83421 0.659605 4.59379C0.365005 3.56798 0.64733 2.30175 1.29791 1.78885C1.75196 1.43623 2.61121 1.35609 3.02869 1.66062C3.17599 1.75679 4.18254 2.99097 5.26274 4.38542L7.22674 6.93391L7.28812 4.80216C7.36177 2.38189 7.48452 1.9331 8.2333 1.61254C9.2153 1.19581 10.1849 1.70871 10.5532 2.86274C10.7618 3.50387 10.7864 8.10397 10.59 8.79319C10.4059 9.43432 10.0132 9.93119 9.41158 10.2838C8.67507 10.7005 7.75445 11.8866 7.37392 12.9124C7.1898 13.3773 6.87052 13.9703 6.66185 14.1947L6.28132 14.6114H1.49431L1.08923 14.0825ZM15.4265 14.2909C15.181 14.0985 14.8864 13.6177 14.6654 13.0407C14.2112 11.8546 13.4503 10.8608 12.5418 10.2678C11.4003 9.51446 11.3389 9.30609 11.3389 5.87605C11.3389 3.26345 11.3634 2.94288 11.5844 2.46204C12.0386 1.50034 13.2291 1.16375 14.0148 1.78885C14.6286 2.28573 14.7759 2.92686 14.7759 5.10669V6.99803L16.8626 4.27323L18.9494 1.54843H19.7349C20.4469 1.54843 20.5697 1.59651 20.9134 2.02927C21.1098 2.28573 21.343 2.76657 21.4167 3.11919C21.6499 4.24117 21.4412 4.67393 19.2196 7.6071L17.1818 10.2838H20.582L20.987 10.8608C21.7235 11.8706 21.5518 13.6658 20.6679 14.355C20.3856 14.5634 19.9314 14.6114 18.0656 14.6114C16.0525 14.6114 15.7824 14.5794 15.4265 14.2909ZM42.3824 7.11022C41.0567 5.98825 41.1304 3.42373 42.5176 2.46204C42.9716 2.14147 43.1927 2.09339 43.7819 2.1575C44.997 2.30175 45.7091 3.27948 45.7091 4.83421C45.7091 6.43704 44.9602 7.43079 43.696 7.52696C43.0329 7.57504 42.8857 7.52696 42.3824 7.11022ZM61.3596 7.33462C60.4881 6.83774 59.9234 5.33109 60.1812 4.19309C60.5863 2.39792 62.0225 1.61254 63.3359 2.44601C64.7843 3.34359 64.8089 6.21264 63.385 7.19036C62.7835 7.6071 61.9364 7.67121 61.3596 7.33462Z" fill="#70707B"/>
</g>
<defs>
<clipPath id="clip0_1_5563">
<rect width="192.889" height="28.209" fill="white" transform="translate(0.453125 0.506592)"/>
</clipPath>
</defs>
</svg>
