<svg width="172" height="37" viewBox="0 0 172 37" fill="none" xmlns="http://www.w3.org/2000/svg">
<g clip-path="url(#clip0_1_5551)">
<path d="M29.2223 0.126953H31.1129C31.2711 0.175692 31.4391 0.15422 31.6003 0.182509C33.751 0.391781 35.8829 1.03732 37.7037 2.21729C38.4375 2.69139 39.1062 3.26228 39.7118 3.89078C40.1761 4.41601 40.6202 4.96373 40.9811 5.56666C41.2146 5.92386 41.3949 6.31104 41.5861 6.69141C42.1399 7.87888 42.4709 9.16451 42.6018 10.4662C42.6376 10.6764 42.6212 10.8912 42.6587 11.1015C42.6788 11.3571 42.6614 11.6137 42.6665 11.8704C42.6597 12.1666 42.688 12.4651 42.6382 12.7586C42.6086 13.517 42.4924 14.2695 42.3509 15.0149C42.2729 15.4594 42.1355 15.8902 42.0472 16.3322C41.1522 19.9151 40.2558 23.4983 39.3601 27.0811C39.2135 27.7451 39.0343 28.4012 38.8744 29.062C38.7643 29.486 38.6573 29.9223 38.4109 30.2918C38.2309 30.5815 37.994 30.8317 37.734 31.0508C37.112 31.5474 36.3107 31.7802 35.522 31.7877C35.1869 31.7577 34.8488 31.7144 34.5295 31.6026C34.1961 31.4714 33.8604 31.3129 33.6177 31.0413C33.266 30.7311 33.0755 30.2649 33.0465 29.8027C33.0076 29.5123 33.0888 29.2229 33.1603 28.9438C33.585 27.2454 34.009 25.547 34.4344 23.849C34.6194 23.1319 34.7793 22.4086 34.9637 21.6915C35.5816 19.2181 36.2013 16.7447 36.8189 14.2705C36.9688 13.6649 37.0615 13.0459 37.1052 12.4239C37.0946 11.9447 37.1324 11.4631 37.0704 10.9869C37.007 10.3912 36.8727 9.79948 36.6392 9.24597C36.4347 8.70847 36.1198 8.21801 35.7411 7.7872C35.6338 7.62462 35.4599 7.52952 35.3301 7.3891C35.27 7.32637 35.205 7.26847 35.1358 7.21596C34.7364 6.91193 34.31 6.63415 33.843 6.44567C33.4371 6.2456 33.0039 6.10518 32.5663 5.99236C31.9606 5.81888 31.3359 5.70675 30.706 5.67743C30.4248 5.62665 30.1385 5.65835 29.8553 5.64778C29.632 5.63722 29.4142 5.69618 29.1917 5.6897C28.1484 5.7873 27.1226 6.0227 26.1412 6.38978C25.4929 6.61541 24.8791 6.9242 24.2755 7.24766C23.557 7.67506 22.8593 8.14575 22.2434 8.71324C22.0307 8.93001 21.813 9.14201 21.5999 9.35844C21.1848 9.84276 20.7945 10.3615 20.5481 10.9546C20.2823 11.8203 20.058 12.6986 19.814 13.5711C19.5174 14.6996 19.2131 15.8258 18.9295 16.9577C18.5873 18.2378 18.2768 19.5269 17.9148 20.8023C17.7512 21.337 17.5863 21.8718 17.4206 22.4062C17.345 22.6987 17.2836 23 17.1435 23.2703C16.7032 24.2348 15.7471 24.925 14.71 25.1056C14.0034 25.2433 13.2362 25.1483 12.621 24.7607C12.4421 24.6227 12.2478 24.4949 12.1179 24.3061C11.8453 23.9877 11.6915 23.5821 11.636 23.1697C11.6282 22.9754 11.5518 22.7743 11.6357 22.5859C12.4802 19.8173 13.1513 16.9999 13.8899 14.202C14.3006 12.624 14.71 11.0456 15.1698 9.4808C15.2713 9.0977 15.4383 8.73574 15.6203 8.38502C16.1166 7.34479 16.801 6.40307 17.5685 5.54689C17.8695 5.24696 18.1691 4.94532 18.4707 4.64573C18.9493 4.23843 19.4217 3.82159 19.9414 3.46644C20.2018 3.25206 20.5004 3.09391 20.7765 2.90202C21.8798 2.20229 23.0635 1.63412 24.2915 1.18967C24.5948 1.08879 24.89 0.961996 25.2005 0.882923C25.8532 0.68967 26.5127 0.516185 27.1831 0.398257C27.7022 0.289531 28.2305 0.241473 28.7554 0.169898C28.9108 0.152175 29.0714 0.177056 29.2223 0.126953Z" fill="#70707B"/>
<path d="M7.25678 5.51054C7.44083 5.50406 7.62147 5.46078 7.80552 5.4635C8.28542 5.50713 8.77349 5.57802 9.21283 5.78798C9.5131 5.94987 9.81338 6.14142 9.99845 6.43726C10.2643 6.77367 10.2824 7.23413 10.1985 7.63802C9.96164 8.55657 9.74657 9.48193 9.49742 10.3978C9.22169 11.5072 8.94357 12.6162 8.66647 13.7253C8.46026 14.5692 8.2285 15.4063 8.0257 16.2509C7.78575 17.2134 7.54274 18.1746 7.3045 19.1378C7.09761 19.8971 6.91492 20.6633 6.72269 21.4271C6.50524 22.2482 6.33414 23.088 6.32221 23.9401C6.28131 24.1616 6.29154 24.3866 6.3246 24.6081C6.33789 25.4994 6.5383 26.3863 6.90913 27.1968C7.08909 27.524 7.26632 27.8563 7.50559 28.1453C7.69066 28.3529 7.85835 28.5778 8.07819 28.751C8.32154 28.9384 8.54854 29.1498 8.8195 29.299C9.10308 29.4797 9.40472 29.6276 9.70874 29.7708C10.3928 30.04 11.1017 30.25 11.8267 30.3757C12.5019 30.4729 13.1866 30.539 13.869 30.4845C15.5782 30.3815 17.2582 29.8907 18.7746 29.0983C19.6744 28.6429 20.4989 28.0475 21.2511 27.3788C21.6771 26.9671 22.0851 26.5321 22.4126 26.0362C22.612 25.7329 22.8264 25.4272 22.9188 25.071C23.8172 21.9674 24.578 18.8269 25.4103 15.7062C25.581 15.0904 25.7872 14.485 25.9675 13.8719C26.1393 13.3057 26.4062 12.7594 26.8026 12.3156C27.0129 12.0334 27.3029 11.8245 27.595 11.6343C28.2232 11.2314 28.9918 11.0787 29.7297 11.1493C30.0834 11.1919 30.4376 11.2785 30.7522 11.4516C31.1434 11.6346 31.4856 11.9376 31.6861 12.3231C31.8831 12.6865 31.8871 13.1244 31.7999 13.5195C31.2396 15.3862 30.7416 17.271 30.2607 19.1596C29.5974 21.7005 28.9594 24.2489 28.2279 26.7718C28.1649 27.0001 28.0698 27.2182 27.9689 27.4323C27.7948 27.8522 27.5664 28.2476 27.3316 28.6365C26.9144 29.3174 26.4386 29.964 25.8932 30.5479C25.6707 30.827 25.3966 31.0588 25.1523 31.3181C24.6642 31.7643 24.1594 32.1954 23.6233 32.5854C22.7811 33.2084 21.8714 33.7364 20.9348 34.2033C20.5006 34.3976 20.0725 34.6055 19.6263 34.7732C19.2391 34.9412 18.8315 35.055 18.4354 35.1996C17.8226 35.3983 17.1975 35.5506 16.5697 35.6907C16.3311 35.7377 16.0891 35.7681 15.8516 35.8192C15.4855 35.8846 15.1144 35.9119 14.7476 35.9685C14.5595 36.0022 14.3638 35.96 14.1801 36.0196H12.2895C12.2198 35.9991 12.1478 35.9874 12.0751 35.9848C11.8045 35.9797 11.5397 35.9156 11.2698 35.901C10.4531 35.7902 9.64262 35.6256 8.85836 35.3713C7.97492 35.1157 7.13272 34.733 6.32494 34.2967C5.74211 33.9634 5.19337 33.5748 4.67224 33.1518C4.5117 33.0059 4.33481 32.8768 4.18723 32.7156C3.95444 32.4705 3.69472 32.25 3.48443 31.9834C2.07679 30.3849 1.19266 28.3529 0.900228 26.2479C0.841604 25.9146 0.832061 25.5744 0.773438 25.2414V23.3116C0.807862 23.1831 0.804794 23.0499 0.818428 22.9193C0.917269 21.9728 1.05837 21.026 1.31741 20.1085C1.71823 18.5314 2.0969 16.9482 2.51169 15.375C2.8273 14.1081 3.14428 12.8419 3.46125 11.5753C3.75948 10.4632 4.02295 9.34151 4.30788 8.22596C4.38287 7.94989 4.42581 7.66222 4.55226 7.40353C4.69644 7.10803 4.85015 6.80741 5.0901 6.57735C5.20837 6.46317 5.31914 6.34115 5.44354 6.23345C5.95548 5.81456 6.6034 5.58075 7.25678 5.51054Z" fill="#70707B"/>
<path d="M71.4375 13.4247C71.458 13.4459 71.458 13.4459 71.4375 13.4247V13.4247Z" fill="white"/>
<path d="M53.8408 7.93477C55.1387 7.93204 56.4362 7.93477 57.7338 7.93341C57.108 10.914 56.4788 13.8932 55.8544 16.8738C55.7324 17.4693 55.5698 18.0674 55.5961 18.6802C55.579 19.0143 55.6445 19.3565 55.8088 19.6503C55.9574 19.9175 56.2246 20.1015 56.5088 20.2021C56.7709 20.307 57.0555 20.3282 57.3326 20.3677C57.6915 20.3963 58.0518 20.3725 58.4063 20.3111C58.8514 20.2552 59.272 20.0668 59.6339 19.8064C60.1493 19.3905 60.4298 18.7661 60.6278 18.1509C60.7454 17.7692 60.8139 17.3759 60.9005 16.9873C61.5361 13.9764 62.1677 10.9641 62.801 7.95386C62.8466 7.92148 62.9073 7.93784 62.9608 7.93273C64.2144 7.93716 65.4677 7.92932 66.7209 7.93613C66.5747 8.733 66.3876 9.52169 66.2301 10.3155C65.8869 11.9372 65.5467 13.5592 65.2042 15.1806C65.0365 15.9587 64.8882 16.7416 64.7073 17.517C64.5143 18.3374 64.2553 19.1448 63.8964 19.9083C63.5781 20.5295 63.1599 21.0943 62.6585 21.5801C61.5429 22.6155 60.1053 23.2873 58.6039 23.5238C58.3401 23.5675 58.0753 23.6124 57.8071 23.6128C57.4304 23.6748 57.0473 23.6349 56.6673 23.6476C56.4567 23.6612 56.2515 23.5964 56.0409 23.6084C55.2593 23.5231 54.4771 23.3391 53.7794 22.9676C53.2081 22.6712 52.7108 22.2503 52.3241 21.7358C51.8551 21.0794 51.6278 20.2576 51.6639 19.4536C51.6543 19.0688 51.6673 18.6854 51.7228 18.304C51.8353 17.3956 52.0569 16.5067 52.2368 15.6107C52.7198 13.3305 53.1922 11.0486 53.6768 8.76913C53.7232 8.48931 53.8091 8.21698 53.8408 7.93477ZM82.2234 7.93375C83.4596 7.93375 84.6955 7.93341 85.9317 7.93409C85.7227 8.93921 85.509 9.94262 85.2977 10.9471H81.5908C81.8066 9.94379 82.0175 8.93911 82.2234 7.93375ZM119.751 7.9559C119.794 7.91977 119.856 7.93954 119.91 7.93273C122.402 7.93545 124.893 7.93273 127.385 7.93375C127.546 7.93613 127.711 7.9208 127.872 7.95692C128.644 7.98964 129.423 8.11473 130.141 8.41398C130.75 8.67779 131.298 9.15427 131.522 9.79368C131.685 10.2718 131.732 10.7816 131.659 11.2814C131.628 11.6781 131.531 12.0653 131.421 12.4464C131.277 12.8401 131.094 13.2245 130.847 13.5647C130.677 13.8312 130.422 14.0248 130.209 14.2538C129.741 14.6406 129.206 14.9381 128.631 15.1315C129.051 15.2497 129.464 15.4287 129.802 15.7106C129.959 15.8605 130.131 15.9989 130.249 16.184C130.548 16.609 130.721 17.1281 130.694 17.6499C130.709 18.0071 130.659 18.3626 130.581 18.7099C130.393 19.4492 130.073 20.1561 129.623 20.7719C129.383 21.1155 129.069 21.3963 128.774 21.6898C128.218 22.1677 127.574 22.5497 126.874 22.7709C126.327 22.9659 125.752 23.0685 125.176 23.1285C124.941 23.1363 124.71 23.1871 124.475 23.169C123.988 23.242 123.493 23.182 123.004 23.213C122.651 23.2699 122.291 23.2321 121.936 23.243C120.135 23.2447 118.334 23.2396 116.534 23.2454C117.605 18.1489 118.674 13.0507 119.751 7.9559ZM122.865 11.064C122.848 11.2214 122.812 11.3769 122.776 11.5316C122.608 12.3189 122.448 13.1079 122.276 13.8943C123.304 13.9018 124.332 13.8956 125.36 13.8977C125.818 13.9113 126.287 13.8493 126.71 13.6625C127.011 13.534 127.273 13.3097 127.433 13.0234C127.573 12.76 127.693 12.4689 127.676 12.1645C127.676 11.9815 127.694 11.7869 127.594 11.624C127.503 11.4143 127.303 11.2831 127.101 11.1959C126.815 11.0892 126.511 11.042 126.206 11.0571C125.092 11.0609 123.978 11.0483 122.865 11.064ZM121.65 16.8445C121.627 17.0749 121.558 17.2978 121.515 17.5245C121.42 17.9914 121.321 18.4577 121.221 18.9239C121.146 19.3329 121.036 19.7351 120.976 20.1475C122.069 20.1659 123.162 20.1492 124.255 20.1564C124.811 20.1216 125.384 20.0541 125.887 19.7972C126.354 19.5323 126.638 19.0282 126.737 18.5122C126.866 18.0579 126.809 17.4918 126.418 17.1806C125.97 16.8776 125.409 16.8108 124.881 16.837C123.804 16.8414 122.727 16.8281 121.65 16.8445ZM160.666 7.93443C161.881 7.93443 163.097 7.93102 164.313 7.93613C164.297 8.02986 164.28 8.12359 164.263 8.21664C164.084 9.036 163.919 9.8581 163.741 10.6775C163.397 12.366 163.025 14.0486 162.685 15.7382C162.901 15.6155 163.044 15.4058 163.24 15.2566C163.426 15.1134 163.567 14.9198 163.759 14.7821C163.928 14.6322 164.078 14.4614 164.26 14.3257C164.375 14.2208 164.475 14.0998 164.602 14.0057C164.774 13.8735 164.906 13.6949 165.08 13.5633C165.239 13.4416 165.363 13.2804 165.522 13.1587C165.652 13.0578 165.761 12.9324 165.881 12.8189C166.096 12.6553 166.27 12.445 166.484 12.2794C166.607 12.1826 166.7 12.051 166.827 11.9559C167.225 11.9338 167.625 11.9546 168.025 11.9474C169.08 11.9426 170.136 11.9576 171.192 11.9392V11.9675C169.75 13.2542 168.308 14.5415 166.868 15.8292C166.701 15.9525 166.577 16.1233 166.401 16.232C166.569 16.7235 166.78 17.1986 166.957 17.6867C167.57 19.2365 168.168 20.791 168.782 22.3401C168.889 22.6571 169.038 22.957 169.138 23.276C167.764 23.2829 166.389 23.2778 165.014 23.2784C164.471 21.7822 163.925 20.2866 163.378 18.7917C163.241 18.8827 163.124 18.9986 162.999 19.1022C162.662 19.3912 162.325 19.6802 161.988 19.9686C161.891 20.0541 161.761 20.1288 161.73 20.2614C161.516 21.2542 161.315 22.2498 161.098 23.2416C159.883 23.243 158.668 23.2443 157.454 23.2416C157.47 23.0712 157.51 22.9056 157.543 22.7389C158.414 18.6138 159.278 14.4866 160.148 10.3608C160.322 9.55305 160.478 8.74016 160.666 7.93443ZM92.3533 11.5541C92.6045 11.5261 92.8588 11.5483 93.1117 11.5415C93.3704 11.5493 93.6321 11.5203 93.8888 11.566C94.5302 11.6403 95.1839 11.7535 95.7634 12.052C96.111 12.1925 96.4167 12.4201 96.699 12.6635C96.8285 12.7525 96.9311 12.8741 97.0258 12.9992C97.2565 13.2351 97.4246 13.5248 97.5667 13.821C97.8643 14.3735 97.96 15.0067 98.0054 15.624C97.9955 15.8949 98.0258 16.169 97.9781 16.4376C97.9611 16.8189 97.8833 17.1935 97.8148 17.5681C97.7088 18.0125 97.6032 18.4587 97.4399 18.8861C97.324 19.1622 97.23 19.4478 97.0878 19.7116C96.8179 20.2413 96.4962 20.7464 96.1025 21.1925C95.9304 21.3527 95.8094 21.5606 95.6195 21.7038C95.5047 21.7839 95.4116 21.8889 95.3094 21.9822C95.1587 22.1029 94.9972 22.2092 94.8509 22.3343C93.7443 23.1124 92.4027 23.5392 91.0541 23.5859C90.6007 23.6479 90.144 23.5937 89.6911 23.5712C89.3165 23.5252 88.9422 23.4642 88.5786 23.3599C88.189 23.2328 87.7899 23.1039 87.4504 22.8694C86.7388 22.4465 86.2013 21.7569 85.9098 20.9867C85.6454 20.2774 85.6126 19.5109 85.6508 18.7627C85.6856 18.5555 85.6716 18.3432 85.7234 18.138C85.9528 16.611 86.5159 15.095 87.5445 13.9232C87.7122 13.7702 87.824 13.5653 88.0111 13.4324C88.1331 13.3482 88.2258 13.2306 88.3373 13.1328C88.8748 12.715 89.446 12.324 90.0881 12.0854C90.8049 11.7773 91.5803 11.6315 92.3533 11.5541ZM92.1318 14.4239C91.8436 14.4708 91.5654 14.5661 91.309 14.7058C91.0507 14.8425 90.8574 15.0623 90.6546 15.2664C90.1161 15.8885 89.8427 16.6843 89.6597 17.474C89.5711 17.9198 89.4804 18.3711 89.5012 18.8275C89.4821 19.1629 89.5425 19.4982 89.6611 19.8118C89.7913 20.1612 90.0534 20.4798 90.4116 20.6087C90.8608 20.8013 91.3744 20.775 91.8383 20.6455C92.1611 20.534 92.4808 20.3796 92.717 20.1264C92.8676 19.97 93.034 19.8265 93.155 19.6434C93.7197 18.8585 93.9696 17.8953 94.1015 16.9498C94.172 16.4825 94.1662 16.0013 94.0408 15.5432C93.9375 15.1829 93.7449 14.8186 93.4055 14.6318C93.0237 14.4069 92.5626 14.3724 92.1314 14.4239H92.1318ZM74.0877 11.7681C74.6773 11.6502 75.2857 11.6148 75.8835 11.6863C76.4541 11.7392 77.0383 11.8844 77.4957 12.2463C78.0049 12.6127 78.2244 13.2531 78.2728 13.8571C78.2653 14.2276 78.3151 14.6018 78.2513 14.9703C78.1801 15.6315 78.0127 16.277 77.8853 16.9287C77.5656 18.4168 77.2626 19.9086 76.9439 21.397C76.8222 21.9969 76.6882 22.594 76.5707 23.1936C76.5581 23.2576 76.4807 23.2379 76.4367 23.244C75.2342 23.2416 74.0314 23.2437 72.8293 23.243C73.1463 21.7651 73.4476 20.2839 73.7639 18.8057C73.9036 18.1121 74.0648 17.4229 74.1855 16.7252C74.2581 16.2532 74.3348 15.7753 74.2956 15.2964C74.2601 15.08 74.1981 14.8336 73.9997 14.7102C73.8614 14.6073 73.699 14.5416 73.528 14.5193C73.0931 14.429 72.6368 14.4972 72.2271 14.657C71.9844 14.7797 71.7479 14.9338 71.5754 15.1458C71.0839 15.7218 70.889 16.4737 70.7158 17.1932C70.3716 18.8585 70.0168 20.5211 69.6695 22.1854C69.588 22.5364 69.5301 22.8929 69.4377 23.2413C68.2107 23.244 66.984 23.2443 65.7577 23.2409C65.7669 23.0927 65.7976 22.9471 65.8334 22.8036C66.557 19.3667 67.2765 15.929 68.0035 12.4934C68.041 12.3104 68.0682 12.1253 68.1204 11.9457C69.333 11.9477 70.5464 11.9488 71.7594 11.9464C71.6609 12.4263 71.5461 12.9041 71.4629 13.3864C71.7015 13.1932 71.8856 12.9413 72.1323 12.7572C72.6869 12.2692 73.3692 11.9328 74.0877 11.7681ZM71.438 13.4246C71.4585 13.4457 71.4585 13.4457 71.438 13.4246V13.4246ZM105.64 12.0299C106.408 11.7088 107.254 11.6056 108.079 11.6652C108.444 11.7 108.81 11.7514 109.157 11.8734C109.557 12.0071 109.938 12.2279 110.195 12.5687C110.547 13.0282 110.647 13.6243 110.668 14.1894C110.685 14.4246 110.623 14.6543 110.63 14.8891C110.551 15.6424 110.36 16.3772 110.214 17.1189C109.827 18.9532 109.441 20.788 109.055 22.6223C109.021 22.8309 108.954 23.0327 108.933 23.2426C107.696 23.242 106.459 23.2447 105.223 23.2416C105.221 23.0174 105.304 22.8054 105.337 22.5855C105.678 20.9635 106.019 19.3415 106.361 17.7201C106.456 17.2542 106.549 16.7879 106.61 16.3162C106.628 16.1226 106.674 15.9311 106.662 15.7351C106.653 15.5432 106.679 15.3486 106.646 15.1591C106.585 14.9921 106.525 14.8016 106.366 14.7024C106.199 14.5786 105.991 14.5343 105.791 14.504C105.544 14.4556 105.291 14.4805 105.048 14.5313C104.807 14.5579 104.588 14.6673 104.377 14.7787C104.213 14.8653 104.092 15.0088 103.961 15.1366C103.734 15.3571 103.608 15.6536 103.468 15.9321C103.141 16.6945 103.034 17.5241 102.846 18.3268C102.555 19.7385 102.249 21.1479 101.96 22.5606C101.909 22.7863 101.856 23.0122 101.828 23.2423C100.59 23.242 99.3517 23.2454 98.1134 23.2406C98.8973 19.4737 99.6966 15.7095 100.484 11.9437C101.696 11.9525 102.909 11.9437 104.121 11.9491C104.033 12.4426 103.905 12.9283 103.825 13.4229C104.32 12.8366 104.939 12.3489 105.64 12.0299ZM136.996 11.9113C137.596 11.7518 138.217 11.7017 138.832 11.6522C139.139 11.6557 139.446 11.6492 139.753 11.655C139.9 11.6741 140.047 11.6955 140.197 11.6897C140.647 11.7238 141.091 11.8158 141.526 11.9385C141.925 12.0681 142.305 12.2617 142.633 12.5241C142.893 12.7627 143.131 13.0411 143.251 13.3793C143.446 13.8407 143.449 14.3517 143.423 14.8435C143.338 15.6444 143.183 16.4372 143.007 17.2235C142.809 18.1768 142.608 19.1295 142.406 20.0821C142.306 20.5961 142.174 21.1046 142.112 21.6254C142.099 21.8217 142.105 22.019 142.107 22.2161C142.122 22.4291 142.185 22.6803 142.4 22.7757C142.361 22.9223 142.348 23.0756 142.306 23.2212C142.26 23.2563 142.197 23.2368 142.148 23.244C140.933 23.2413 139.718 23.244 138.504 23.2423C138.512 23.0323 138.485 22.819 138.528 22.6111C138.554 22.4427 138.537 22.2716 138.535 22.1019C137.933 22.6066 137.25 23.0057 136.515 23.2822C135.946 23.472 135.349 23.6015 134.747 23.5729C134.13 23.5968 133.488 23.5133 132.942 23.2092C132.796 23.1441 132.666 23.0484 132.547 22.942C132.36 22.758 132.163 22.576 132.045 22.3377C131.864 22.0378 131.778 21.6915 131.75 21.3452C131.695 21.1083 131.769 20.8711 131.772 20.6336C131.874 19.8493 132.156 19.0811 132.637 18.4488C132.765 18.2607 132.945 18.1182 133.099 17.9532C133.287 17.7433 133.529 17.5926 133.764 17.4399C134.379 17.0606 135.072 16.8326 135.777 16.6922C136.334 16.575 136.894 16.4721 137.456 16.3834C138.17 16.2559 138.917 16.1676 139.555 15.7947C139.709 15.717 139.805 15.5568 139.856 15.3973C139.88 15.2392 139.928 15.0855 139.941 14.926C139.922 14.7462 139.84 14.5789 139.71 14.4539C139.613 14.3503 139.468 14.3193 139.341 14.2699C138.971 14.1812 138.583 14.1526 138.208 14.2272C137.752 14.2821 137.305 14.4733 136.983 14.806C136.817 14.9951 136.694 15.2143 136.584 15.4386C135.442 15.4372 134.3 15.441 133.158 15.4365C133.422 14.7361 133.77 14.0561 134.277 13.4989C134.531 13.2491 134.77 12.9798 135.07 12.7831C135.644 12.3649 136.309 12.0814 136.996 11.9113M137.942 18.3769C137.302 18.5296 136.614 18.5869 136.05 18.9539C135.682 19.1676 135.467 19.5882 135.44 20.0057C135.407 20.2648 135.435 20.5548 135.607 20.7644C135.767 20.9846 136.032 21.1053 136.295 21.1421C136.801 21.1881 137.32 21.0838 137.777 20.8636C138.083 20.6799 138.399 20.4819 138.602 20.1799C138.835 19.8974 138.979 19.5521 139.055 19.1959C139.142 18.7794 139.234 18.3643 139.315 17.9464C138.88 18.1519 138.41 18.274 137.942 18.3769ZM152.446 11.7893C153.365 11.5827 154.342 11.596 155.244 11.8789C155.554 11.9944 155.864 12.1451 156.09 12.3942C156.415 12.6921 156.596 13.1182 156.666 13.548C156.799 14.324 156.684 15.1144 156.537 15.88C156.018 18.3333 155.506 20.7886 154.988 23.242C153.749 23.242 152.51 23.245 151.272 23.2406C151.431 22.3722 151.633 21.5122 151.807 20.6465C151.996 19.7658 152.175 18.8834 152.366 18.0033C152.515 17.2457 152.694 16.4873 152.728 15.7143C152.763 15.5735 152.746 15.4297 152.718 15.2896C152.706 15.1069 152.651 14.9188 152.52 14.7855C152.387 14.639 152.193 14.5654 152.004 14.5275C151.58 14.4249 151.133 14.49 150.728 14.6359C150.355 14.7856 150.039 15.049 149.825 15.3888C149.443 15.9614 149.268 16.6393 149.125 17.3043C148.714 19.2845 148.287 21.2614 147.88 23.243C146.645 23.2423 145.409 23.244 144.173 23.242C144.892 19.8166 145.61 16.3905 146.334 12.9658C146.394 12.625 146.492 12.2913 146.536 11.9474C147.749 11.9474 148.962 11.9474 150.174 11.9467C150.162 12.1887 150.08 12.4205 150.039 12.658C149.994 12.9147 149.927 13.1662 149.88 13.4222C150.029 13.3114 150.108 13.1349 150.257 13.0234C150.355 12.9509 150.447 12.8703 150.532 12.7825C151.077 12.3039 151.735 11.9471 152.446 11.7893ZM81.3747 11.9481C82.6133 11.9471 83.8522 11.9467 85.0908 11.9474C84.3505 15.4331 83.6252 18.9212 82.887 22.4073C82.8427 22.6878 82.751 22.9594 82.7224 23.2423C81.4848 23.242 80.2466 23.2454 79.009 23.2409C79.6682 20.0763 80.3399 16.9147 81.0032 13.7508C81.1256 13.1499 81.2656 12.5524 81.3747 11.9481ZM141.26 26.8456C141.383 26.817 141.509 26.8163 141.633 26.8466C141.818 26.8517 142.001 26.8756 142.185 26.9001C142.145 27.2611 142.047 27.6132 141.979 27.97C141.754 27.9608 141.529 27.9387 141.305 27.9632C141.18 27.9911 141.049 28.0406 140.981 28.1554C140.814 28.4308 140.808 28.7614 140.719 29.0637C141.06 29.0672 141.402 29.0617 141.744 29.0661C141.683 29.3831 141.615 29.6994 141.548 30.0157C141.208 30.0191 140.869 30.0106 140.53 30.0215C140.325 30.8974 140.16 31.7826 139.967 32.6613C139.809 33.424 139.648 34.1858 139.486 34.9479C139.063 34.952 138.64 34.9445 138.217 34.952C138.524 33.5164 138.819 32.0781 139.125 30.6418C139.153 30.4339 139.229 30.2345 139.24 30.0242C138.945 30.0082 138.65 30.0188 138.356 30.0164C138.414 29.6974 138.507 29.3858 138.547 29.0637C138.847 29.0617 139.149 29.0719 139.45 29.0559C139.568 28.6203 139.614 28.1629 139.802 27.7474C139.927 27.517 140.093 27.3044 140.305 27.1466C140.582 26.9499 140.922 26.8575 141.26 26.8456ZM146.13 26.9301C146.582 26.9294 147.034 26.9267 147.487 26.9308C147.456 27.2764 147.349 27.6084 147.291 27.9492C146.799 30.2819 146.305 32.6146 145.819 34.9486C145.367 34.9479 144.916 34.952 144.464 34.9462C144.471 34.7782 144.512 34.6142 144.553 34.452C145.073 31.9435 145.614 29.4393 146.13 26.9301ZM159.531 26.9294C159.946 26.9301 160.361 26.926 160.777 26.9315C160.243 29.5082 159.694 32.0815 159.154 34.6572C159.118 34.7492 159.138 34.8719 159.069 34.9435C158.668 34.9561 158.267 34.9452 157.866 34.9489C157.928 34.7189 157.969 34.4844 158.014 34.2512C157.739 34.4728 157.473 34.71 157.154 34.8664C156.8 35.0611 156.391 35.147 155.988 35.133C155.457 35.148 154.915 34.937 154.562 34.5358C154.411 34.345 154.296 34.1282 154.198 33.907C154.1 33.6401 154.073 33.3548 154.042 33.0747C154.021 32.8651 154.078 32.6599 154.081 32.451C154.175 31.7577 154.393 31.0767 154.752 30.4758C154.884 30.2582 155.04 30.0569 155.219 29.876C155.298 29.7464 155.43 29.6715 155.537 29.5675C156.171 28.9779 157.105 28.7413 157.945 28.9465C158.218 29.0348 158.491 29.1643 158.685 29.3828C158.785 29.4905 158.866 29.6145 158.957 29.7304C159.13 28.8405 159.329 27.9543 159.512 27.0654C159.517 27.0201 159.523 26.9748 159.531 26.9294ZM157.032 30.0324C156.622 30.1281 156.26 30.365 156.007 30.7015C155.811 30.9671 155.66 31.2639 155.562 31.5794C155.433 32.0028 155.334 32.4452 155.363 32.8906C155.403 33.2066 155.497 33.5426 155.74 33.7652C155.931 33.894 156.154 34.0004 156.391 33.9977C156.588 33.9932 156.79 34.0181 156.983 33.9602C157.323 33.8681 157.641 33.6803 157.871 33.4111C158.352 32.8081 158.546 32.0266 158.599 31.2713C158.584 30.9803 158.56 30.6653 158.382 30.4227C158.187 30.1415 157.831 30.0044 157.497 30.0157C157.341 30.0208 157.184 30.0031 157.032 30.0324ZM162.217 26.9301C162.645 26.9301 163.074 26.926 163.502 26.9315C163.428 27.361 163.339 27.788 163.236 28.2117C162.811 28.2137 162.386 28.2072 161.961 28.2151C162.039 27.7849 162.156 27.363 162.217 26.9301ZM134.578 28.7454C135.06 28.7188 135.554 28.712 136.023 28.8511C136.737 29.0505 137.344 29.5978 137.596 30.2989C137.847 31.0327 137.784 31.8323 137.595 32.5723C137.473 33.0461 137.239 33.4837 136.944 33.8719C136.771 34.0784 136.6 34.2904 136.38 34.4486C135.726 34.9987 134.854 35.2352 134.011 35.2066C133.604 35.1923 133.192 35.1323 132.817 34.9684C132.653 34.9127 132.502 34.8271 132.369 34.7161C131.766 34.3071 131.434 33.5709 131.43 32.8528C131.396 32.7075 131.397 32.5561 131.433 32.4114C131.429 31.637 131.66 30.8794 132.096 30.2393C132.523 29.6044 133.151 29.1305 133.878 28.893C134.108 28.8327 134.338 28.7676 134.578 28.7454ZM134.688 29.6657C134.426 29.7076 134.157 29.7587 133.929 29.8998C133.72 30.0259 133.512 30.1704 133.372 30.3736C133.047 30.7703 132.846 31.255 132.722 31.7482C132.651 32.0498 132.59 32.3579 132.608 32.6691C132.587 33.1132 132.708 33.5873 133.028 33.9097C133.161 34.0154 133.305 34.1135 133.468 34.1694C134.261 34.466 135.21 34.2107 135.766 33.5781C135.964 33.3249 136.161 33.0634 136.272 32.7584C136.447 32.3586 136.505 31.9223 136.551 31.4922C136.571 31.0873 136.548 30.6606 136.342 30.3006C136.122 29.9414 135.714 29.7246 135.3 29.6854C135.098 29.649 134.89 29.6285 134.688 29.6657ZM166.42 28.8933C166.952 28.8603 167.501 28.8644 168.011 29.0399C168.283 29.1401 168.564 29.2921 168.711 29.5545C168.809 29.7154 168.878 29.8998 168.871 30.0914C168.901 30.5805 168.73 31.0491 168.648 31.5256C168.507 32.1834 168.374 32.8422 168.231 33.5C168.199 33.6609 168.173 33.8272 168.216 33.9891C168.377 34.0539 168.554 34.0188 168.723 34.0345C168.652 34.3457 168.59 34.6582 168.521 34.9694C168.132 35.0662 167.717 35.1033 167.329 34.9857C167.179 34.9298 167.03 34.8426 166.958 34.6943C166.854 34.5525 166.886 34.3726 166.879 34.21C166.3 34.8013 165.475 35.1855 164.638 35.1326C164.229 35.1129 163.785 35.0058 163.505 34.6868C163.355 34.5369 163.263 34.3334 163.216 34.1289C163.184 33.7601 163.194 33.3767 163.343 33.0321C163.465 32.6447 163.708 32.3061 164.034 32.0648C164.346 31.8385 164.711 31.7025 165.08 31.6019C165.441 31.5174 165.806 31.4417 166.177 31.4077C166.583 31.3357 167.019 31.301 167.365 31.0515C167.572 30.9223 167.627 30.6466 167.59 30.4209C167.568 30.2239 167.408 30.0634 167.221 30.0133C166.924 29.9042 166.603 29.9492 166.295 29.9451C166.006 29.9871 165.712 30.0828 165.497 30.289C165.345 30.4597 165.247 30.6723 165.217 30.8991C164.814 30.8991 164.411 30.9019 164.008 30.8978C164.028 30.7178 164.081 30.543 164.15 30.376C164.246 30.1653 164.345 29.9482 164.517 29.7867C164.993 29.2396 165.707 28.9482 166.42 28.8933ZM166.538 32.2492C166.072 32.3593 165.581 32.3617 165.131 32.5362C164.903 32.6316 164.689 32.7983 164.601 33.0372C164.499 33.2809 164.423 33.5914 164.585 33.8276C164.65 33.9513 164.789 34.0014 164.911 34.0532C165.294 34.1575 165.702 34.0798 166.07 33.953C166.513 33.7724 166.902 33.4261 167.079 32.9755C167.171 32.6701 167.234 32.3562 167.291 32.0426C167.04 32.1146 166.797 32.211 166.538 32.2492H166.538ZM150.502 29.2083C150.903 28.985 151.373 28.8988 151.829 28.9172C152.197 28.9526 152.587 28.9888 152.902 29.2028C153.036 29.3262 153.189 29.4479 153.249 29.6278C153.317 29.7792 153.339 29.9441 153.359 30.1074C153.4 30.3231 153.327 30.5362 153.33 30.7526C153.27 31.1865 153.16 31.6115 153.077 32.0409C152.877 32.9936 152.671 33.9462 152.478 34.9002C152.466 34.9632 152.386 34.9421 152.345 34.9489C151.962 34.9421 151.579 34.9598 151.198 34.9462C151.269 34.4936 151.386 34.0495 151.469 33.5989C151.557 33.2042 151.631 32.8075 151.721 32.4141C151.818 31.891 151.955 31.3753 152.034 30.849C152.078 30.5321 151.919 30.164 151.592 30.0709C151.217 29.9636 150.805 30.0038 150.443 30.1435C150.097 30.2879 149.809 30.5443 149.625 30.8715C149.426 31.2185 149.359 31.6173 149.285 32.0045C149.07 32.984 148.877 33.969 148.658 34.9476C148.232 34.9527 147.807 34.9438 147.383 34.9527C147.733 33.3245 148.065 31.6926 148.413 30.0641C148.48 29.7297 148.549 29.3954 148.629 29.0644C149.033 29.0665 149.438 29.062 149.843 29.0658C149.828 29.316 149.744 29.5545 149.701 29.7999C149.94 29.5692 150.202 29.3545 150.502 29.2083ZM161.775 29.0651C162.203 29.0651 162.631 29.0631 163.06 29.0651C162.661 31.0283 162.229 32.984 161.832 34.9469C161.404 34.9503 160.976 34.95 160.547 34.9469C160.944 32.9837 161.377 31.028 161.775 29.0651Z" fill="#70707B"/>
</g>
<defs>
<clipPath id="clip0_1_5551">
<rect width="170.418" height="35.924" fill="white" transform="translate(0.773438 0.111084)"/>
</clipPath>
</defs>
</svg>
