<svg width="192" height="52" viewBox="0 0 192 52" fill="none" xmlns="http://www.w3.org/2000/svg">
<path fill-rule="evenodd" clip-rule="evenodd" d="M17.9692 36.267L17.8446 36.3907C16.2318 38.0034 14.3707 38.8721 12.386 38.8721C8.29176 38.8721 5.3136 35.894 5.3136 31.6761C5.3136 27.3325 8.29176 24.3544 12.386 24.3544C14.3707 24.3544 16.2318 25.2231 17.8446 26.8358L17.9692 26.9605L20.5744 23.8587V23.734C18.3413 21.1289 15.7351 19.8871 12.5086 19.8871C9.2821 19.8871 6.30496 21.0042 4.19552 22.9889C1.83772 25.0984 0.72168 28.0765 0.72168 31.6761C0.72168 35.1489 1.83874 38.1271 4.19552 40.2375C6.30496 42.2213 9.28312 43.3394 12.5086 43.3394C15.7341 43.3394 18.3413 42.0976 20.5744 39.4925V39.3688L17.9692 36.267ZM23.4289 42.8416H28.0198V20.2591H23.4289V42.8416ZM45.391 38.0034C44.2739 38.7485 43.0332 39.1194 42.0408 39.1194C40.5518 39.1194 39.8067 38.3744 39.8067 36.5143V24.6017H44.5213V20.2591H39.8067V13.1868L35.3395 15.6682V20.2591H31.3689V24.6017H35.3395V37.382C35.3395 40.8548 37.3252 43.2126 40.4271 43.2126C42.5365 43.3383 43.7772 42.718 44.5213 42.2202H44.646V42.0966L45.762 37.753L45.391 38.0034ZM48.7412 42.8416H53.4557V20.2591H48.7412V42.8416Z" fill="#70707B"/>
<path fill-rule="evenodd" clip-rule="evenodd" d="M169.346 0.778442H168.228L167.981 2.63954C149.493 3.13521 145.771 17.5283 145.771 17.5283C145.771 17.5283 149.122 15.4199 154.085 15.4199C159.173 15.4199 161.157 17.4046 161.157 17.4046C161.157 17.4046 164.382 14.7985 168.85 14.7985C173.317 14.7985 176.542 17.4046 176.542 17.4046C176.542 17.4046 178.526 15.4199 183.491 15.4199C188.578 15.4199 191.929 17.5283 191.929 17.5283C191.929 17.5283 188.082 3.13521 169.594 2.63954L169.346 0.778442Z" fill="#70707B"/>
<path fill-rule="evenodd" clip-rule="evenodd" d="M165.995 43.4631C168.849 43.4631 170.338 41.7267 170.338 38.4991V16.7864C169.718 16.538 168.726 16.538 168.104 16.7864V38.4991C168.104 40.6086 167.236 41.3536 165.995 41.3536C164.632 41.3536 163.761 40.6086 163.761 38.4991C163.761 37.8808 163.266 37.3831 162.768 37.3831C162.148 37.3831 161.652 37.8798 161.652 38.4991C161.653 41.7256 163.142 43.4631 165.995 43.4631Z" fill="#70707B"/>
<path fill-rule="evenodd" clip-rule="evenodd" d="M71.9445 36.3907C70.7037 37.8798 68.7179 39.3688 66.6085 39.3688C63.1347 39.3688 61.2725 36.8853 61.2725 31.0547C61.2725 26.3391 63.01 23.8577 66.3601 23.8577C68.7179 23.8577 70.8274 25.4704 71.9445 26.8358V36.3907ZM76.4107 40.8559V20.2592H71.8198V22.3686C70.579 21.0032 68.3459 19.7625 65.9871 19.7625C61.1489 19.7625 56.6816 23.4857 56.6816 31.1774C56.6816 39.8625 60.6522 43.462 65.7398 43.462C68.2212 43.462 70.0823 42.3439 71.8198 40.8548V41.2279C71.8198 45.8188 70.3307 47.5552 63.754 47.9293L65.3678 51.1547C73.8055 50.9064 76.4107 47.6809 76.4107 40.8559ZM93.0379 24.9747C92.0455 24.478 90.9284 24.106 89.4393 24.106C86.4612 24.106 84.8484 26.0918 84.8484 29.9377V42.8427H80.2575V20.2592H84.8484V22.3686C85.8408 20.8795 87.8266 19.7625 90.1834 19.7625C92.0445 19.7625 93.2862 20.1345 94.2776 20.7548L93.0379 24.9747ZM110.036 31.6751C110.036 35.7693 107.678 39.2421 104.205 39.2421C100.731 39.2421 98.2491 36.5133 98.2491 31.5514C98.2491 26.9595 100.483 23.9813 103.956 23.9813C107.678 23.9824 110.036 26.9595 110.036 31.6751ZM114.627 31.5514C114.627 24.3544 110.16 19.7625 104.205 19.7625C98.2491 19.7625 93.6582 24.105 93.6582 31.6751C93.6582 38.7474 98.1255 43.462 104.082 43.462C110.16 43.463 114.627 38.9948 114.627 31.5514ZM131.129 42.8417V40.8559C129.89 42.4686 127.532 43.463 125.175 43.463C119.592 43.463 116.737 39.9882 116.737 33.2889V20.2592H121.328V33.1621C121.328 37.753 123.188 39.3678 126.167 39.3678C129.268 39.3678 131.128 37.2584 131.128 33.5352V20.2592H135.719V42.8417H131.129ZM154.705 32.0471C154.705 36.8853 152.843 39.3688 149.493 39.3688C147.135 39.3688 145.026 37.754 143.91 36.3907V26.7122C145.15 25.3478 147.135 23.8587 149.369 23.8587C152.72 23.8577 154.705 26.3391 154.705 32.0471ZM159.296 31.9234C159.296 23.362 155.326 19.7635 150.238 19.7635C147.633 19.7635 145.647 20.8805 143.911 22.3696V20.2602H139.444V51.2804L143.911 48.9227V40.8559C145.276 42.2213 147.509 43.463 149.991 43.463C154.829 43.463 159.296 39.7398 159.296 31.9234Z" fill="#70707B"/>
</svg>
